<svg xmlns="http://www.w3.org/2000/svg" width="56.999" height="52.615" viewBox="0 0 56.999 52.615">
  <path id="desktop" d="M74.422,40H30.577A6.577,6.577,0,0,0,24,46.577V77.269a6.577,6.577,0,0,0,6.577,6.577H50.307V88.23H43.731a2.192,2.192,0,1,0,0,4.385H61.269a2.192,2.192,0,0,0,0-4.385H54.692V83.846H74.422A6.577,6.577,0,0,0,81,77.269V46.577A6.577,6.577,0,0,0,74.422,40ZM30.577,44.385H74.422a2.192,2.192,0,0,1,2.192,2.192V68.5H28.385V46.577A2.192,2.192,0,0,1,30.577,44.385ZM74.422,79.461H30.577a2.192,2.192,0,0,1-2.192-2.192V72.884h48.23v4.385A2.192,2.192,0,0,1,74.422,79.461Z" transform="translate(-24 -40)" fill="#fff"/>
</svg>
