<svg xmlns="http://www.w3.org/2000/svg" width="30.857" height="48" viewBox="0 0 30.857 48">
  <path id="device-mobile" d="M81.714,16H61.143A5.143,5.143,0,0,0,56,21.143V58.857A5.143,5.143,0,0,0,61.143,64H81.714a5.143,5.143,0,0,0,5.143-5.143V21.143A5.143,5.143,0,0,0,81.714,16ZM59.429,26.286h24V53.714h-24Zm1.714-6.857H81.714a1.714,1.714,0,0,1,1.714,1.714v1.714h-24V21.143A1.714,1.714,0,0,1,61.143,19.429ZM81.714,60.571H61.143a1.714,1.714,0,0,1-1.714-1.714V57.143h24v1.714A1.714,1.714,0,0,1,81.714,60.571Z" transform="translate(-56 -16)" fill="#fff"/>
</svg>
