<svg id="btDzuDGGFdv217RvmfauQdbDAWUuqg9rEBNUuv94VRxLBXE_TUjiDWCsL-SO-yUUgyxbWduZ7NcLG-cB3aHl6hqwBDfi1p81J0d5gb2OLTZyFqP63pJpbjt4rtUfJlyVtr4s_6niSuRquiurYNNMew" xmlns="http://www.w3.org/2000/svg" width="222.382" height="42.064" viewBox="0 0 222.382 42.064">
  <path id="패스_25" data-name="패스 25" d="M38.542,10.264s-2.043.178-2.314.2a8.96,8.96,0,0,0-2.243.844c0,.182-.35.588-.608.788a2.908,2.908,0,0,0-.645,1.422c0,.224-.276.549-.276.773a4.727,4.727,0,0,1-.391,1.007C32.35,17,14.505,35.436,7.7,41.491a2.746,2.746,0,0,1-1.457.738c-.866.189-1.009-.386-2.128.671A34.691,34.691,0,0,0,.956,46.762c-.343.445-1,1.3-.962,1.628.037.36,1.363,1.031,2.182,1.355.206.059.634.2,1.179.315.764.163,1.363-.089,4.906-2.638,4.685-3.371,11.792-3.083,12.2-3.15,3.163-.482,12.372.486,12.817.638s17.057,3.13,20.289,3.454A56.673,56.673,0,0,0,75.7,46.328a52.331,52.331,0,0,0,14.263-7.49l.18-.386A62.17,62.17,0,0,1,74.57,43.006c-1.9.252-2.028.252-2.039.493.02-2.067,1.125-6.647,2.308-7.26,1.2-.623,3.211-.8,7.937-.81,4.431-.015,5.065.211,5.065.211,1.652-.619.447-.167,1.633-2.581.354-.7.08-1.806-.84-1.865-4.552-.315-5.877-.063-11.471.237-.5.03-.491-.1-.491-.1s5.555-5.6,6.463-6.022a7.182,7.182,0,0,1,2.2-.673,1.07,1.07,0,0,0,.866-1.049c-.08-.493.137-1.626-1.817-2.4s-2.414-.91-2.989-.7a13.214,13.214,0,0,0-2.985.862c-1.865.81-12.515,5.221-13.171,5.31-.638.1-1.732.28-2.043-.065s-.443-.638-.067-1.628c.274-.738.871-2.03.871-2.03s-.022.03-.818.716c-.58.508-4.8,3.6-4.991,3.708a7.731,7.731,0,0,0-1.14,1.055c-.074.119-.508,1.728.291,2.245s3.866.263,4.442,0,1.246-.523,1.246-.523a42.256,42.256,0,0,1,3.7-2.642c1.25-.7,8.037-3.7,8.408-3.84.391-.143.76-.282.76-.282-.221,1.65-4.157,8.432-5.692,8.636-5.521.727-8.575,1.062-14.534,2.052-.682.115-2.529.738-2.529.738a.707.707,0,0,0,.078.805c.3.471.106,1.109,1.552.942,1.917-.211,6.732-.786,7.587-.816,4.268-.089,6.6-.078,6.6-.078s-1.5,6.548-3.6,7.815c-1.072.638-3.211.753-8.184.586-.528-.011-22.777-3-28.676-2.9a79.784,79.784,0,0,0-15.774,2.21s6.728-6.563,7.5-7.507c.339-.371.671.336.771.371.117.033.523-.267.94-.727.376-.408,4.759-5.156,5.032-5.5.365-.434,1.014-1.161.947-1.263l-1.806,1.5c-1.357,1.188-1.007.549-1.007.549a59.284,59.284,0,0,1,5.466-5.475c.84-.966,3.908-3.845,4.114-4.07s-.052.612-.052.612a13.708,13.708,0,0,0-2.414,2.7c-.185.234-.347.208-.686.76,0,0-.037.165.523-.315.675-.588,6.326-5.781,6.628-6.148.243-.3.412-.267.523-.141.1.1-.048.549.1.473a13.157,13.157,0,0,1,1.917-1.263,3.622,3.622,0,0,1,1.811.189,1.248,1.248,0,0,0,1.691.145c1.031-.573,1.072-.673,1.316-1.072a1.387,1.387,0,0,0,.059-1.1c-.059-.137.321-.777.041-1.3s.339-.664-1.231-2a13.65,13.65,0,0,0-3.432-1.945,2.388,2.388,0,0,0-1.685-.406.762.762,0,0,1-.76-.067.641.641,0,0,0-.48-.115" transform="translate(0.007 -8.035)" fill="#2c5abb"/>
  <path id="패스_26" data-name="패스 26" d="M170.376,17.646a23.75,23.75,0,0,1,4.468,2.114,11.365,11.365,0,0,1,2.872,2.874,3.21,3.21,0,0,1-.28,2.675,7.486,7.486,0,0,1-2.683,2.622,2.7,2.7,0,0,1-2.08-.23,4.132,4.132,0,0,0-1.385-.237,2.836,2.836,0,0,1-1.5-1.146,26.457,26.457,0,0,0-4.752-3.812c-1.04-.638-2.334-1.2-2.51-1.4a2.6,2.6,0,0,1-.666-1.743,2.86,2.86,0,0,1,.217-1.138,3.051,3.051,0,0,1,1.363-1.261,7.291,7.291,0,0,1,2.481-.228,28.864,28.864,0,0,1,4.446.914M235.206,1.141c2.555.994,3.638,1.146,6.359,3.243a3.427,3.427,0,0,1,1.5,2.961,7.057,7.057,0,0,1-1.437,2.918,5.042,5.042,0,0,1-2.85,1.674c-.888.1-1.135.1-3.565-1.943-1.389-1.181-4.236-3.934-5.788-5.275a5.735,5.735,0,0,1-1.633-2A1.98,1.98,0,0,1,229.128.04a17.467,17.467,0,0,1,6.079,1.1M220.17,13.317s1.769.371,2.193.454a30.482,30.482,0,0,0,4.859.059,61.445,61.445,0,0,0,8.445-.4c4.183-.508,8.755-.749,9.211-.866a14.855,14.855,0,0,0,1.869-.521c1.2-.6,3.358.623,3.76,1.016a3.2,3.2,0,0,1,1.161,3c-.332,1.025-1.615,1.2-1.891,1.3-.306.1-2.182-.145-2.874.046-3.193.89-8.058,3.157-17.053,10.594-6.2,5.145-9.094,8.358-10.727,9.678-1.261,1.02-2.629,2.605-4.214,3.141a17.917,17.917,0,0,1-9.452.141c-3.141-.771-1.161-.567.126-.916,4.446-1.168,6.684-2.492,13.308-7.527,8.914-6.773,11.4-8.632,14.07-10.646a56.586,56.586,0,0,1,8.918-5.427c.089,0-2.371.245-7.579.9-1.546.193-7.351.905-8.085,1.094a4.768,4.768,0,0,1-3.621-1.033c-1.3-1.261-2.455-1.932-3.1-2.7-.545-.671-.564-.31-.265-.831.4-.686.936-.558.936-.558M188.03,4.82a76.087,76.087,0,0,1,8.017-1.337c2.13-.087,5.191-.356,6.079-.441a54.964,54.964,0,0,1,8.161.545,3.117,3.117,0,0,1,1.8,1.125A3.68,3.68,0,0,1,213.1,5.854a1.551,1.551,0,0,1-.486,2.173c-.907.547-6.617.957-8.946,1.235a37.668,37.668,0,0,0-8.371,2.375c-.556.206-1.939,1.044-3.159,1.724-.217.117.306-.69.851-1.379.829-1.033,1.526-1.83,1.526-1.83a4.125,4.125,0,0,0-1.077-.18c-.38.017-4.568.024-5.117.067a6.184,6.184,0,0,1-2.514-.382,3.476,3.476,0,0,1-1.342-1.971c-.115-.478-.619-1.277.022-1.507s2.256-.53,2.557-.747a5.518,5.518,0,0,1,.686-.43c.439-.23.306-.182.306-.182" transform="translate(-126.719 -0.009)" fill="#2c5abb"/>
  <path id="패스_27" data-name="패스 27" d="M461.3,32.939a13.738,13.738,0,0,1,5.154,1.45c2.3,1.12,2.824,2.219,2.937,2.538.4,1.109.3,3.339-.634,4.077-.851.693-2.746,1.153-3.469.671l-.137-.082c-2.256-1.481-3.73-2.5-4.177-2.868-.354-.271-1.161-.816-1.949-1.346l-1.478-.99a6.97,6.97,0,0,1-1.3-1.413.44.44,0,0,1-.041-.156,6.873,6.873,0,0,1,.406-.868,3.4,3.4,0,0,1,.745-.439,11.291,11.291,0,0,1,3.945-.571M443.952,45.83a4.613,4.613,0,0,1-.84-.037,9.943,9.943,0,0,0-1.869,0c-.206.067-.523.419-.907,1.339-.369.91-.582,2.114.011,2.219s1.379-.037,2.926-1.424c1.887-1.7,2.979-1.2,2.979-1.2s3.141.649,4.932,1.2c1.763.556,6.315,1.969,9.37,2.084,3.089.1,4.685-.011,7.24-1.209a19.145,19.145,0,0,0,4.822-3.178,12.675,12.675,0,0,0,1.769-1.8c.08-.282.069.052-.591.261a45.188,45.188,0,0,1-8.766.86c-3.764.026-8.445-.5-10.794-.738a30.872,30.872,0,0,0-7.759.827c-.834.224-2.518.795-2.518.795m106.43,5.681h7.822V25.534h8.634v-4.4h-8.634V14.18h-7.822Zm-32.458-25.94c0-5.5,6.322-9.967,14.1-9.967s14.185,4.47,14.185,9.967-6.354,9.96-14.185,9.96-14.1-4.461-14.1-9.96m14.1,5.966c3.825,0,6.908-2.679,6.908-5.968s-3.085-5.961-6.908-5.961-6.865,2.67-6.865,5.961,3.074,5.968,6.865,5.968m-36.923,4.733h23.131V32.062H499.388V29.023H511.73V24.811H487.247V18.389H511.73V14.18H479.438V24.192c0,2.666,2.7,4.828,6.063,4.828h6.079V32.06H472.838v4.205h10.646a8.067,8.067,0,0,0-2.957,5.951c0,5.5,6.691,9.971,14.945,9.971s14.951-4.474,14.951-9.971a6.561,6.561,0,0,0-.608-2.785h-7.889a5.1,5.1,0,0,1,.851,2.785c0,3.3-3.274,5.968-7.3,5.968s-7.283-2.67-7.283-5.968,3.063-5.79,6.919-5.951" transform="translate(-344.459 -11.104)" fill="#2c5abb"/>
</svg>
