<?xml version="1.0" encoding="UTF-8"?>
<svg id="_레이어_2" data-name="레이어 2" xmlns="http://www.w3.org/2000/svg" viewBox="0 0 703.97 43.25">
  <defs>
    <style>
      .cls-1 {
        isolation: isolate;
      }

      .cls-2 {
        fill: #222;
      }
    </style>
  </defs>
  <g id="Layer_1" data-name="Layer 1">
    <g id="_제3회_전국_약사·분회_자랑_콘테스트" data-name="제3회 전국 약사·분회 자랑 콘테스트" class="cls-1">
      <g class="cls-1">
        <path class="cls-2" d="M13.12,19.38l9.41,17.5-5.54,3.27-5.87-11.13c-1.11,3.69-2.59,6.53-4.46,8.5-1.86,1.98-4.09,3.06-6.67,3.24v-7.2c2.18-.44,3.9-2.91,5.15-7.39,1.25-4.49,1.92-10.48,1.99-17.97H.78V1.55h19.11v6.65h-6.09c-.07,4.14-.3,7.86-.66,11.19ZM29.41.55v41.65h-6.53v-19.44h-5.54v-6.92h5.54V.55h6.53ZM39.71,42.92h-6.53V.39h6.53v42.53Z"/>
        <path class="cls-2" d="M70,21.9c1.88,1.98,2.82,4.46,2.82,7.45,0,2.25-.57,4.31-1.72,6.17-1.14,1.86-2.89,3.35-5.23,4.46-2.35,1.11-5.22,1.66-8.61,1.66-2.73,0-5.39-.39-7.97-1.16-2.58-.78-4.78-1.85-6.59-3.21l3.1-5.93c1.44,1.15,3.15,2.05,5.12,2.71,1.97.66,4.03,1,6.17,1,2.51,0,4.46-.5,5.84-1.5,1.38-1,2.08-2.4,2.08-4.21s-.66-3.08-1.97-4.04c-1.31-.96-3.33-1.44-6.06-1.44h-3.77v-5.15l8.64-10.19h-17.33V2.27h26.58v5.04l-9.3,10.97c3.58.44,6.31,1.65,8.2,3.63Z"/>
        <path class="cls-2" d="M106.16,32.51v6.53c-1.26.55-2.89.98-4.9,1.27-2.01.3-4.18.44-6.51.44h-17.78v-6.48h10.52v-4.43c-2.7-.44-4.81-1.4-6.34-2.88-1.53-1.48-2.3-3.36-2.3-5.65,0-2.81,1.12-4.99,3.35-6.56,2.23-1.57,5.18-2.35,8.83-2.35s6.6.78,8.83,2.35c2.23,1.57,3.35,3.76,3.35,6.56,0,2.33-.78,4.22-2.33,5.68-1.55,1.46-3.69,2.41-6.42,2.85v4.43c5.32,0,9.21-.59,11.69-1.77ZM77.14,10.74v-6.31h10.19V0h7.2v4.43h10.3v6.31h-27.69ZM86.94,23.51c1,.54,2.36.8,4.1.8s3.05-.27,4.07-.8c1.01-.54,1.52-1.26,1.52-2.19s-.5-1.66-1.5-2.22c-1-.55-2.36-.83-4.1-.83s-3.1.27-4.1.8c-1,.54-1.5,1.28-1.5,2.24s.5,1.65,1.5,2.19ZM115.74,42.92h-6.98V.39h6.98v42.53Z"/>
        <path class="cls-2" d="M140.3,23.87c-2.34,1.48-4.92,2.29-7.73,2.44v-6.65c2.81-.29,5.1-1.6,6.9-3.9,1.79-2.31,2.85-5.12,3.18-8.45h-9.58V1.05h25.81v6.26h-9.19c-.04,1.59-.3,3.18-.78,4.76l11.52,8.64-3.93,5.26-10.3-7.97c-1.59,2.44-3.55,4.39-5.9,5.87ZM171.4,42.75h-36.33v-14.51h7.14v7.92h29.19v6.59ZM163.75.39h6.98v31.57h-6.98v-15.78h-6.15v-6.42h6.15V.39Z"/>
        <path class="cls-2" d="M199.53,28.35h14.4v14.9h-7.14v-8.69h-28.85v-6.2h14.56v-5.37h-16.83v-6.2h40.76v6.2h-16.89v5.37ZM178.15,6.76V.55h35.61v14.29h-7.14V6.76h-28.47Z"/>
        <path class="cls-2" d="M236.3,23.2c-1.96-1.03-3.47-2.46-4.54-4.29-1.07-1.83-1.61-3.92-1.61-6.29s.53-4.4,1.61-6.23c1.07-1.83,2.58-3.26,4.54-4.29,1.96-1.03,4.21-1.55,6.76-1.55s4.74.52,6.7,1.55c1.96,1.03,3.47,2.46,4.54,4.29,1.07,1.83,1.61,3.9,1.61,6.23s-.54,4.46-1.61,6.29c-1.07,1.83-2.58,3.26-4.54,4.29-1.96,1.03-4.19,1.55-6.7,1.55s-4.8-.52-6.76-1.55ZM268.03,27.47v15.78h-7.09v-9.47h-27.8v-6.31h34.89ZM238.76,8.25c-1.09,1.07-1.63,2.53-1.63,4.38s.54,3.31,1.63,4.4c1.09,1.09,2.52,1.63,4.29,1.63s3.2-.54,4.29-1.63,1.63-2.56,1.63-4.4-.55-3.3-1.63-4.38c-1.09-1.07-2.52-1.61-4.29-1.61s-3.2.54-4.29,1.61ZM268.03,14.51h5.04v6.26h-5.04v4.93h-6.98V.39h6.98v3.77h5.04v6.31h-5.04v4.04Z"/>
        <path class="cls-2" d="M291.29,18.88l12.07,17.61-5.76,4.21-8.81-13.29c-1.59,4.21-3.61,7.46-6.06,9.75-2.46,2.29-5.21,3.49-8.28,3.6v-7.53c2.25-.33,4.23-1.9,5.93-4.71,1.7-2.81,3.02-6.56,3.96-11.27.94-4.71,1.41-10.03,1.41-15.98l7.09.22c0,6.35-.52,12.15-1.55,17.39ZM311.89,23.54v19.38h-6.98V.39h6.98v16.06h5.04v7.09h-5.04Z"/>
        <path class="cls-2" d="M321.25,25.09c-.89-.89-1.33-2.05-1.33-3.49s.44-2.59,1.33-3.46c.89-.87,2.03-1.3,3.43-1.3s2.55.43,3.43,1.3c.89.87,1.33,2.02,1.33,3.46s-.44,2.6-1.33,3.49c-.89.89-2.03,1.33-3.43,1.33s-2.55-.44-3.43-1.33Z"/>
        <path class="cls-2" d="M375.02,28.13h-16.89v5.54h-7.03v-5.54h-16.83v-6.04h40.76v6.04ZM373.08,36.66v6.09h-36.33v-11.8h7.14v5.7h29.18ZM336.87,19.11V.44h6.87v3.77h21.82V.44h6.87v18.66h-35.55ZM365.55,9.69h-21.82v3.82h21.82v-3.82Z"/>
        <path class="cls-2" d="M407.31,32.51v6.53c-1.26.55-2.89.98-4.9,1.27-2.01.3-4.18.44-6.51.44h-17.78v-6.48h10.52v-4.43c-2.7-.44-4.81-1.4-6.34-2.88-1.53-1.48-2.3-3.36-2.3-5.65,0-2.81,1.12-4.99,3.35-6.56,2.23-1.57,5.18-2.35,8.83-2.35s6.6.78,8.83,2.35c2.23,1.57,3.35,3.76,3.35,6.56,0,2.33-.78,4.22-2.33,5.68-1.55,1.46-3.69,2.41-6.42,2.85v4.43c5.32,0,9.21-.59,11.68-1.77ZM378.29,10.74v-6.31h10.19V0h7.2v4.43h10.3v6.31h-27.69ZM388.09,23.51c1,.54,2.36.8,4.1.8s3.05-.27,4.07-.8c1.01-.54,1.52-1.26,1.52-2.19s-.5-1.66-1.5-2.22-2.36-.83-4.1-.83-3.1.27-4.1.8c-1,.54-1.5,1.28-1.5,2.24s.5,1.65,1.5,2.19ZM416.89,42.92h-6.98V.39h6.98v42.53Z"/>
        <path class="cls-2" d="M449.78,19.83l11.96,16.39-5.54,4.32-8.8-12.4c-1.59,3.95-3.58,7.01-5.98,9.17-2.4,2.16-5.09,3.31-8.08,3.46v-7.42c2.03-.29,3.82-1.52,5.37-3.68,1.55-2.16,2.76-5.08,3.63-8.75.87-3.67,1.34-7.87,1.41-12.6h-9.36V1.55h25.42v6.76h-8.97c-.11,4.32-.46,8.16-1.05,11.52ZM470.5,23.54v19.38h-6.98V.39h6.98v16.06h5.04v7.09h-5.04Z"/>
        <path class="cls-2" d="M494.92,6.65h-17.17V1.05h24.09v14.18h-17v3.38h9.97c2.14,0,4.13-.14,5.95-.42,1.83-.28,3.29-.66,4.4-1.14v5.54c-1.07.52-2.56.91-4.46,1.19s-3.98.42-6.23.42h-16.61v-14.18h17.06v-3.38ZM509.95,28.44c3.23,1.31,4.85,3.46,4.85,6.45s-1.62,5.09-4.85,6.4c-3.23,1.31-7.6,1.97-13.1,1.97s-9.87-.66-13.1-1.97c-3.23-1.31-4.85-3.44-4.85-6.4s1.61-5.14,4.85-6.45c3.23-1.31,7.6-1.97,13.1-1.97s9.87.66,13.1,1.97ZM507.32,34.89c0-1.85-3.49-2.77-10.47-2.77s-10.47.92-10.47,2.77,3.49,2.71,10.47,2.71,10.47-.9,10.47-2.71ZM519.39,15.73h-5.04v9.91h-6.98V.39h6.98v8.2h5.04v7.14Z"/>
        <path class="cls-2" d="M572.39,28.08h-40.76v-6.09h14.07v-5.26h7.09v5.26h19.6v6.09ZM570.45,36.66v6.09h-36.33v-12.07h7.14v5.98h29.18ZM534.23,16.84v-5.93h28.58v-4.38h-28.58V.5h35.55v19.38h-6.98v-3.05h-28.58Z"/>
        <path class="cls-2" d="M591.63,34.11c1.79-.26,3.31-.65,4.57-1.16v6.2c-1.18.52-2.75.91-4.71,1.19-1.96.28-3.95.42-5.98.42h-9.14V1.55h17.83v6.26h-11.24v9.97h9.47v6.26h-9.47v10.47h3.16c1.88,0,3.72-.13,5.51-.39ZM605.23.55v41.65h-6.53v-18.11h-4.21v-6.92h4.21V.55h6.53ZM615.31,42.92h-6.53V.39h6.53v42.53Z"/>
        <path class="cls-2" d="M660.11,34.39v6.87h-40.76v-6.87h40.76ZM630.76,24.31c-3.36,2.03-6.9,3.06-10.63,3.1v-6.98c2.73,0,5.35-.88,7.86-2.63,2.51-1.75,4.63-4.15,6.37-7.2,1.73-3.05,2.86-6.47,3.38-10.27l7.14,1.16c-.44,2.99-1.25,5.89-2.44,8.69l17.44,11.46-3.71,5.93-16.78-11.63c-2.4,3.54-5.28,6.33-8.64,8.36Z"/>
        <path class="cls-2" d="M703.97,41.26h-40.76v-6.76h40.76v6.76ZM665.59,29.57V1.55h36v6.48h-29.02v4.43h28.41v6.15h-28.41v4.54h29.52v6.42h-36.5Z"/>
      </g>
    </g>
  </g>
</svg>