<svg xmlns="http://www.w3.org/2000/svg" width="52.645" height="42.109" viewBox="0 0 52.645 42.109">
  <path id="hand-coins" d="M50.514,49.669a5.358,5.358,0,0,0-4.658-.928l-9.176,2.11A6.141,6.141,0,0,0,30.7,43.3H19.725a6.979,6.979,0,0,0-4.963,2.055L9.8,50.313H3.509A3.509,3.509,0,0,0,0,53.822v8.772A3.509,3.509,0,0,0,3.509,66.1H26.317a1.739,1.739,0,0,0,.425-.053l14.036-3.509a1.522,1.522,0,0,0,.261-.088l8.525-3.627.1-.044a5.4,5.4,0,0,0,.862-9.115ZM3.509,53.822H8.772v8.772H3.509Zm44.615,1.8L39.79,59.171,26.1,62.595H12.281v-9.8l4.963-4.961a3.478,3.478,0,0,1,2.48-1.029H30.7a2.632,2.632,0,0,1,0,5.263H24.563a1.754,1.754,0,1,0,0,3.509h7.018a1.825,1.825,0,0,0,.393-.044l14.694-3.38.068-.018a1.886,1.886,0,0,1,1.382,3.487ZM35.967,39.786a7.9,7.9,0,0,0,1.294-.105A7.9,7.9,0,1,0,43.45,29.373a7.9,7.9,0,1,0-7.483,10.413Zm13.159-2.632a4.386,4.386,0,1,1-4.386-4.386A4.386,4.386,0,0,1,49.126,37.155ZM35.967,27.5a4.386,4.386,0,0,1,4.222,3.2,7.9,7.9,0,0,0-3.29,5.467,4.479,4.479,0,0,1-.932.1,4.386,4.386,0,0,1,0-8.772Z" transform="translate(0 -23.995)" fill="#fff"/>
</svg>
