<svg xmlns="http://www.w3.org/2000/svg" width="768" height="197" viewBox="0 0 768 197">
  <g id="그룹_1005" data-name="그룹 1005" transform="translate(24 -6460)">
    <rect id="사각형_16" data-name="사각형 16" width="203" height="197" rx="98.5" transform="translate(344 6460)" fill="#363636"/>
    <path id="사각형_18" data-name="사각형 18" d="M0,0H129.5A98.5,98.5,0,0,1,228,98.5v0A98.5,98.5,0,0,1,129.5,197H0a0,0,0,0,1,0,0V0A0,0,0,0,1,0,0Z" transform="translate(744 6657) rotate(180)" fill="#b7b7b7"/>
    <path id="사각형_17" data-name="사각형 17" d="M2.074,0H137.154A98.846,98.846,0,0,1,236,98.846v0A98.154,98.154,0,0,1,137.846,197H0a0,0,0,0,1,0,0V2.074A2.074,2.074,0,0,1,2.074,0Z" transform="translate(-24 6460)" fill="#6c6c6c" opacity="0.98"/>
    <circle id="타원_34" data-name="타원 34" cx="98.5" cy="98.5" r="98.5" transform="translate(176 6460)" fill="#ec373b" opacity="0.91"/>
    <text id="매출" transform="translate(76 6525)" fill="#fff" font-size="22" font-family="Pretendard-Medium, Pretendard" font-weight="500"><tspan x="0" y="0">매출</tspan></text>
    <text id="일_평균_" data-name="일 평균 " transform="translate(247 6528)" fill="#fff" font-size="22" font-family="Pretendard-Medium, Pretendard" font-weight="500"><tspan x="0" y="0">일 평균 </tspan></text>
    <text id="_3_000개_이상" data-name="3,000개 
이상" transform="translate(447 6579)" fill="#fff" font-size="28" font-family="Pretendard-Bold, Pretendard" font-weight="700"><tspan x="-56.014" y="0">3,000개 </tspan><tspan x="-24.199" y="28">이상</tspan></text>
    <text id="_30개_이상" data-name="30개 
이상" transform="translate(641 6581)" fill="#fff" font-size="28" font-family="Pretendard-Bold, Pretendard" font-weight="700"><tspan x="-33.51" y="0">30개 </tspan><tspan x="-24.199" y="28">이상</tspan></text>
    <text id="_100억_달성" data-name="100억 
달성" transform="translate(278 6581)" fill="#fff" font-size="28" font-family="Pretendard-Bold, Pretendard" font-weight="700"><tspan x="-40.373" y="0">100억 </tspan><tspan x="-24.199" y="28">달성</tspan></text>
    <text id="_1억_5천_pv" data-name="1억 5천 
pv" transform="translate(100 6581)" fill="#fff" font-size="28" font-family="Pretendard-Bold, Pretendard" font-weight="700"><tspan x="-45.992" y="0">1억 5천 </tspan><tspan x="-16.146" y="26">pv</tspan></text>
    <text id="매체_수" data-name="매체 수" transform="translate(607 6531)" fill="#fff" font-size="22" font-family="Pretendard-Medium, Pretendard" font-weight="500"><tspan x="0" y="0">매체 수</tspan></text>
    <text id="국내_해외_DSP_연동" data-name="국내 해외 
DSP 연동" transform="translate(405 6512)" fill="#fff" font-size="22" font-family="Pretendard-Medium, Pretendard" font-weight="500"><tspan x="0" y="0">국내 해외 </tspan><tspan x="0" y="26">DSP 연동</tspan></text>
  </g>
</svg>
