<svg xmlns="http://www.w3.org/2000/svg" width="768" height="197" viewBox="0 0 768 197">
  <g id="그룹_1028" data-name="그룹 1028" transform="translate(24 -6460)">
    <rect id="사각형_16" data-name="사각형 16" width="203" height="197" rx="98.5" transform="translate(344 6460)" fill="#363636"/>
    <path id="사각형_18" data-name="사각형 18" d="M0,0H129.5A98.5,98.5,0,0,1,228,98.5v0A98.5,98.5,0,0,1,129.5,197H0a0,0,0,0,1,0,0V0A0,0,0,0,1,0,0Z" transform="translate(744 6657) rotate(180)" fill="#b7b7b7"/>
    <path id="사각형_17" data-name="사각형 17" d="M2.074,0H137.154A98.846,98.846,0,0,1,236,98.846v0A98.154,98.154,0,0,1,137.846,197H0a0,0,0,0,1,0,0V2.074A2.074,2.074,0,0,1,2.074,0Z" transform="translate(-24 6460)" fill="#6c6c6c" opacity="0.98"/>
    <circle id="타원_34" data-name="타원 34" cx="98.5" cy="98.5" r="98.5" transform="translate(176 6460)" fill="#ec373b" opacity="0.91"/>
    <text id="국내_1위_수준의_트래픽과_고품질_웹_트래픽_확보" data-name="국내 1위 수준의 
트래픽과 고품질 
웹 트래픽 확보" transform="translate(30 6539)" fill="#fff" font-size="20" font-family="Pretendard-Medium, Pretendard" font-weight="500"><tspan x="0" y="0">국내 1위 수준의 </tspan><tspan x="0" y="24">트래픽과 고품질 </tspan><tspan x="0" y="48">웹 트래픽 확보</tspan></text>
    <text id="Optivize" transform="translate(237 6563)" fill="#fff" font-size="20" font-family="Pretendard-Medium, Pretendard" font-weight="500"><tspan x="0" y="0">Optivize</tspan></text>
    <text id="글로벌_및_국내_DSP와의_안정적_연동_구조" data-name="글로벌 및 국내 
DSP와의 
안정적 연동 구조" transform="translate(380 6541)" fill="#fff" font-size="20" font-family="Pretendard-Medium, Pretendard" font-weight="500"><tspan x="0" y="0">글로벌 및 국내 </tspan><tspan x="0" y="24">DSP와의 </tspan><tspan x="0" y="48">안정적 연동 구조</tspan></text>
    <text id="검증된_파트너_네트워크_구축" data-name="검증된 파트너 
네트워크 구축" transform="translate(577 6553)" fill="#fff" font-size="20" font-family="Pretendard-Medium, Pretendard" font-weight="500"><tspan x="0" y="0">검증된 파트너 </tspan><tspan x="0" y="24">네트워크 구축</tspan></text>
  </g>
</svg>
