<svg xmlns="http://www.w3.org/2000/svg" width="1920" height="315" viewBox="0 0 1920 315">
  <g id="그룹_1029" data-name="그룹 1029" transform="translate(0 -4571)">
    <path id="사각형_16" data-name="사각형 16" d="M0,0H508.5A157.5,157.5,0,0,1,666,157.5v0A157.5,157.5,0,0,1,508.5,315H0a0,0,0,0,1,0,0V0A0,0,0,0,1,0,0Z" transform="translate(0 4571)" fill="#6c6c6c"/>
    <path id="사각형_18" data-name="사각형 18" d="M0,0H377.5A157.5,157.5,0,0,1,535,157.5v0A157.5,157.5,0,0,1,377.5,315H0a0,0,0,0,1,0,0V0A0,0,0,0,1,0,0Z" transform="translate(1920 4886) rotate(180)" fill="#b7b7b7"/>
    <rect id="사각형_17" data-name="사각형 17" width="714" height="315" rx="157.5" transform="translate(774 4571)" fill="#363636" opacity="0.98"/>
    <circle id="타원_34" data-name="타원 34" cx="157.5" cy="157.5" r="157.5" transform="translate(519 4571)" fill="#ec373b" opacity="0.91"/>
    <text id="국내_1위_수준의_트래픽과_고품질_웹_트래픽_확보" data-name="국내 1위 수준의 
트래픽과 고품질 웹 트래픽 확보" transform="translate(66 4726)" fill="#fff" font-size="34" font-family="Pretendard-Bold, Pretendard" font-weight="700"><tspan x="0" y="0">국내 1위 수준의 </tspan><tspan x="0" y="40">트래픽과 고품질 웹 트래픽 확보</tspan></text>
    <text id="검증된_파트너_네트워크_구축" data-name="검증된 파트너 
네트워크 구축" transform="translate(1600 4726)" fill="#fff" font-size="34" font-family="Pretendard-Bold, Pretendard" font-weight="700"><tspan x="0" y="0">검증된 파트너 </tspan><tspan x="0" y="40">네트워크 구축</tspan></text>
    <text id="글로벌_및_국내_DSP와의_안정적_연동_구조" data-name="글로벌 및 국내 DSP와의
 안정적 연동 구조" transform="translate(985 4726)" fill="#fff" font-size="34" font-family="Pretendard-Bold, Pretendard" font-weight="700"><tspan x="0" y="0">글로벌 및 국내 DSP와의</tspan><tspan x="0" y="40" xml:space="preserve"> 안정적 연동 구조</tspan></text>
    <text id="Optivize" transform="translate(676 4741)" fill="#fff" font-size="34" font-family="Pretendard-Bold, Pretendard" font-weight="700"><tspan x="-66.564" y="0">Optivize</tspan></text>
  </g>
</svg>
