<svg xmlns="http://www.w3.org/2000/svg" width="60.83" height="42.109" viewBox="0 0 60.83 42.109">
  <path id="list-magnifying-glass" d="M32,58.339A2.339,2.339,0,0,1,34.339,56H85.8a2.339,2.339,0,1,1,0,4.679H34.339A2.339,2.339,0,0,1,32,58.339Zm2.339,21.054H55.393a2.339,2.339,0,0,0,0-4.679H34.339a2.339,2.339,0,1,0,0,4.679ZM60.072,93.429H34.339a2.339,2.339,0,1,0,0,4.679H60.072a2.339,2.339,0,1,0,0-4.679Zm32.066,3.994a2.339,2.339,0,0,1-3.31,0L82.88,91.487A11.7,11.7,0,1,1,86.2,88.165L92.138,94.1a2.339,2.339,0,0,1,0,3.322ZM76.447,88.75a7.018,7.018,0,1,0-7.018-7.018A7.018,7.018,0,0,0,76.447,88.75Z" transform="translate(-32 -56)" fill="#fff"/>
</svg>
