<svg xmlns="http://www.w3.org/2000/svg" xmlns:xlink="http://www.w3.org/1999/xlink" width="246.927" height="31.104" viewBox="0 0 246.927 31.104">
  <defs>
    <clipPath id="clip-path">
      <rect id="사각형_2" data-name="사각형 2" width="246.927" height="31.104" fill="#d90000"/>
    </clipPath>
  </defs>
  <g id="그룹_4" data-name="그룹 4" transform="translate(0 0)">
    <path id="패스_1" data-name="패스 1" d="M14.643,8.226l3.707,10.319H10.936ZM11.481.414,0,30.028H6.831L8.9,24.288H20.384l2.072,5.741h7.376L18.351.414Z" transform="translate(0 0.349)" fill="#d90000"/>
    <g id="그룹_2" data-name="그룹 2" transform="translate(0 0)">
      <g id="그룹_1" data-name="그룹 1" clip-path="url(#clip-path)">
        <path id="패스_2" data-name="패스 2" d="M15.526,15.551C15.526,6.575,22.248,0,31.37,0c8.137,0,13.588,4.9,14.789,11.155H39.472c-.691-2.834-3.707-5.087-7.956-5.087a9.136,9.136,0,0,0-9.376,9.483,9.157,9.157,0,0,0,9.376,9.483c4.249,0,7.739-2.8,8.247-5.486h6.685C45.54,25.507,39.582,31.1,31.37,31.1c-9.122,0-15.844-6.577-15.844-15.551" transform="translate(13.068 0.001)" fill="#d90000"/>
        <path id="패스_3" data-name="패스 3" d="M33.6.414H55.618V6.156H40.212v6.032H54.347v5.741H40.212v6.358H55.946v5.742H33.6Z" transform="translate(28.28 0.349)" fill="#d90000"/>
        <path id="패스_4" data-name="패스 4" d="M52.577.651H62.06c7.448,0,11.809,3.705,11.809,9.448s-4.361,9.448-11.809,9.448H54.137v9.809h-1.56Zm9.192,17.441c6.542,0,10.538-2.763,10.538-7.993S68.311,2.1,61.769,2.1H54.137V18.092Z" transform="translate(44.254 0.548)" fill="#d90000"/>
        <path id="패스_5" data-name="패스 5" d="M67.633.651V27.9H84.565v1.453H66.071V.651Z" transform="translate(55.611 0.548)" fill="#d90000"/>
        <path id="패스_6" data-name="패스 6" d="M98.454,21H82.468l-3.562,8.358H77.2L89.516.651h1.853l12.317,28.706h-1.67ZM97.8,19.547,90.461,2.358,83.12,19.547Z" transform="translate(64.976 0.548)" fill="#d90000"/>
        <path id="패스_7" data-name="패스 7" d="M93.3.651h1.961l19.947,26.671V.651h1.564v28.7h-1.961L94.859,2.686v26.67H93.3Z" transform="translate(78.527 0.548)" fill="#d90000"/>
        <path id="패스_8" data-name="패스 8" d="M109.079.651h19.585V2.106H110.641V13.987h16.75V15.44h-16.75V27.9h18.351v1.453H109.079Z" transform="translate(91.811 0.548)" fill="#d90000"/>
        <path id="패스_9" data-name="패스 9" d="M144.937,2.105H133.853V29.357h-1.562V2.105H121.173V.651h23.763Z" transform="translate(101.991 0.548)" fill="#d90000"/>
      </g>
    </g>
  </g>
</svg>
