<svg id="point_icon" xmlns="http://www.w3.org/2000/svg" xmlns:xlink="http://www.w3.org/1999/xlink" width="18.4" height="13.732" viewBox="0 0 18.4 13.732">
  <defs>
    <clipPath id="clip-path">
      <rect id="사각형_638" data-name="사각형 638" width="18.4" height="13.732" fill="none"/>
    </clipPath>
  </defs>
  <g id="그룹_950" data-name="그룹 950" clip-path="url(#clip-path)">
    <path id="패스_5308" data-name="패스 5308" d="M41.468,6.866A6.866,6.866,0,1,1,34.6,0a6.866,6.866,0,0,1,6.866,6.866" transform="translate(-23.068 0)" fill="#ffcf64"/>
    <path id="패스_5309" data-name="패스 5309" d="M13.732,6.866A6.866,6.866,0,1,1,6.866,0a6.866,6.866,0,0,1,6.866,6.866" transform="translate(0 0)" fill="#ffac27"/>
    <path id="패스_5310" data-name="패스 5310" d="M34.785,25.074a1.506,1.506,0,0,0-.392-.577,1.822,1.822,0,0,0-.659-.372,2.962,2.962,0,0,0-.925-.13H31.345a.887.887,0,0,0-.638.188.844.844,0,0,0-.2.629v4.53a.531.531,0,0,0,.222.468.828.828,0,0,0,.894,0,.531.531,0,0,0,.222-.468V27.751h.958a2.574,2.574,0,0,0,.912-.148,1.95,1.95,0,0,0,.659-.4,1.617,1.617,0,0,0,.4-.6,2,2,0,0,0,.128-.713v-.11a1.969,1.969,0,0,0-.125-.7m-1.221.71v.086a.6.6,0,0,1-.207.541,1.229,1.229,0,0,1-.681.16H31.85v-1.4h.911a1.89,1.89,0,0,1,.359.032.642.642,0,0,1,.245.1.427.427,0,0,1,.144.172.74.74,0,0,1,.054.312" transform="translate(-25.377 -19.958)" fill="#ffe8ae"/>
  </g>
</svg>
