<svg id="그룹_1020" data-name="그룹 1020" xmlns="http://www.w3.org/2000/svg" xmlns:xlink="http://www.w3.org/1999/xlink" width="56.668" height="51.337" viewBox="0 0 56.668 51.337">
  <defs>
    <clipPath id="clip-path">
      <rect id="사각형_249" data-name="사각형 249" width="56.668" height="51.337" fill="none"/>
    </clipPath>
  </defs>
  <g id="그룹_1019" data-name="그룹 1019" clip-path="url(#clip-path)">
    <path id="패스_8814" data-name="패스 8814" d="M45.208,9.9a30.4,30.4,0,0,1-16.325,4.492A30.4,30.4,0,0,1,12.558,9.9" transform="translate(-3.215 -2.534)" fill="none" stroke="#fff" stroke-linecap="round" stroke-linejoin="round" stroke-width="3"/>
    <path id="패스_8815" data-name="패스 8815" d="M28.3,53.063a30.561,30.561,0,0,0-16.028,4.3" transform="translate(-3.141 -13.583)" fill="none" stroke="#fff" stroke-linecap="round" stroke-linejoin="round" stroke-width="3"/>
    <line id="선_47" data-name="선 47" x2="26.537" transform="translate(1.116 25.668)" fill="none" stroke="#fff" stroke-linecap="round" stroke-linejoin="round" stroke-width="3"/>
    <path id="패스_8816" data-name="패스 8816" d="M37.829,47.6A24.556,24.556,0,1,1,50.6,26.052" transform="translate(-0.384 -0.384)" fill="none" stroke="#fff" stroke-linecap="round" stroke-linejoin="round" stroke-width="3"/>
    <path id="패스_8817" data-name="패스 8817" d="M37.1,45.181c-1.579,3.393-3.587,5.424-5.773,5.424-5.085,0-9.207-10.992-9.207-24.552S26.248,1.5,31.332,1.5c4.449,0,8.162,8.416,9.02,19.6" transform="translate(-5.664 -0.384)" fill="none" stroke="#fff" stroke-linecap="round" stroke-linejoin="round" stroke-width="3"/>
    <path id="패스_8818" data-name="패스 8818" d="M57.362,31.236a13.392,13.392,0,0,1,0,18.94c-3.742,3.742-12.221,6.718-18.94,0a13.392,13.392,0,0,1,18.94-18.94Zm7.022,25.976-7.022-7.037" transform="translate(-8.832 -6.992)" fill="none" stroke="#4971cf" stroke-linecap="round" stroke-linejoin="round" stroke-width="3"/>
  </g>
</svg>
