<svg id="그룹_1018" data-name="그룹 1018" xmlns="http://www.w3.org/2000/svg" xmlns:xlink="http://www.w3.org/1999/xlink" width="41.478" height="56.899" viewBox="0 0 41.478 56.899">
  <defs>
    <clipPath id="clip-path">
      <rect id="사각형_248" data-name="사각형 248" width="41.478" height="56.899" fill="none"/>
    </clipPath>
  </defs>
  <g id="그룹_1017" data-name="그룹 1017" transform="translate(0 0)" clip-path="url(#clip-path)">
    <path id="패스_8813" data-name="패스 8813" d="M35.617,15.526V7.185a5.656,5.656,0,0,0-1.666-4.019A5.672,5.672,0,0,0,29.932,1.5H7.187A5.683,5.683,0,0,0,1.5,7.185V49.642a5.685,5.685,0,0,0,5.687,5.685H29.932a5.648,5.648,0,0,0,2.212-.447,5.677,5.677,0,0,0,3.473-5.238V41.3" transform="translate(0.036 0.036)" fill="none" stroke="#fff" stroke-linecap="round" stroke-linejoin="round" stroke-width="3"/>
    <line id="선_43" data-name="선 43" x1="6.066" transform="translate(15.562 9.919)" fill="none" stroke="#fff" stroke-linecap="round" stroke-linejoin="round" stroke-width="3"/>
    <line id="선_44" data-name="선 44" y2="5.908" transform="translate(12.767 26.115)" fill="none" stroke="#4971cf" stroke-linecap="round" stroke-linejoin="round" stroke-width="3"/>
    <line id="선_45" data-name="선 45" y2="5.908" transform="translate(26.355 26.115)" fill="none" stroke="#4971cf" stroke-linecap="round" stroke-linejoin="round" stroke-width="3"/>
    <line id="선_46" data-name="선 46" y2="5.908" transform="translate(39.942 26.115)" fill="none" stroke="#4971cf" stroke-linecap="round" stroke-linejoin="round" stroke-width="3"/>
  </g>
</svg>
