<svg id="그룹_136" data-name="그룹 136" xmlns="http://www.w3.org/2000/svg" xmlns:xlink="http://www.w3.org/1999/xlink" width="55.268" height="57.355" viewBox="0 0 55.268 57.355">
  <defs>
    <clipPath id="clip-path">
      <rect id="사각형_180" data-name="사각형 180" width="55.268" height="57.355" fill="none"/>
    </clipPath>
  </defs>
  <g id="그룹_135" data-name="그룹 135" transform="translate(0 0)" clip-path="url(#clip-path)">
    <path id="패스_776" data-name="패스 776" d="M32.478,32.591l1.2,6.827a3.879,3.879,0,0,1-.233,2.339,1.536,1.536,0,0,1-1.379.972H13.843a1.536,1.536,0,0,1-1.379-.972,3.869,3.869,0,0,1-.233-2.339l1.2-6.827" transform="translate(4.679 12.548)" fill="none" stroke="#fff" stroke-linecap="round" stroke-linejoin="round" stroke-width="3"/>
    <path id="패스_777" data-name="패스 777" d="M36.529,4.6H46a6.606,6.606,0,0,1,6.609,6.611V36.765a6.567,6.567,0,0,1-.519,2.572,6.628,6.628,0,0,1-3.518,3.517A6.567,6.567,0,0,1,46,43.373H8.108a6.588,6.588,0,0,1-4.672-1.935,6.654,6.654,0,0,1-1.417-2.1A6.567,6.567,0,0,1,1.5,36.765V11.209a6.567,6.567,0,0,1,.519-2.572A6.607,6.607,0,0,1,8.108,4.6h9.474" transform="translate(0.578 1.77)" fill="none" stroke="#fff" stroke-linecap="round" stroke-linejoin="round" stroke-width="3"/>
    <path id="패스_778" data-name="패스 778" d="M30.413,6.048A4.548,4.548,0,0,1,25.865,10.6H18.589a4.548,4.548,0,1,1,0-9.1h7.276A4.549,4.549,0,0,1,30.413,6.048Z" transform="translate(5.406 0.577)" fill="none" stroke="#fff" stroke-linecap="round" stroke-linejoin="round" stroke-width="3"/>
    <path id="패스_779" data-name="패스 779" d="M30.413,18.963a4.547,4.547,0,0,1-4.548,4.547H18.589a4.547,4.547,0,1,1,0-9.094h7.276A4.547,4.547,0,0,1,30.413,18.963Z" transform="translate(5.406 5.55)" fill="none" stroke="#2a72d4" stroke-linecap="round" stroke-linejoin="round" stroke-width="3"/>
    <line id="선_29" data-name="선 29" x2="2.425" transform="translate(13.081 36.945)" fill="none" stroke="#fff" stroke-linecap="round" stroke-linejoin="round" stroke-width="3"/>
    <line id="선_30" data-name="선 30" x2="2.425" transform="translate(26.421 36.945)" fill="none" stroke="#fff" stroke-linecap="round" stroke-linejoin="round" stroke-width="3"/>
    <line id="선_31" data-name="선 31" x2="2.425" transform="translate(39.761 36.945)" fill="none" stroke="#fff" stroke-linecap="round" stroke-linejoin="round" stroke-width="3"/>
  </g>
</svg>
