<svg xmlns="http://www.w3.org/2000/svg" xmlns:xlink="http://www.w3.org/1999/xlink" width="61.946" height="62.894" viewBox="0 0 61.946 62.894">
  <defs>
    <clipPath id="clip-path">
      <rect id="사각형_250" data-name="사각형 250" width="61.946" height="62.893" fill="none"/>
    </clipPath>
  </defs>
  <g id="그룹_1025" data-name="그룹 1025" transform="translate(0 0)">
    <g id="그룹_1022" data-name="그룹 1022" transform="translate(0 0)">
      <g id="그룹_1021" data-name="그룹 1021" clip-path="url(#clip-path)">
        <line id="선_48" data-name="선 48" y2="5.622" transform="translate(32.616 1.157)" fill="none" stroke="#4971cf" stroke-linecap="round" stroke-linejoin="round" stroke-width="3"/>
      </g>
    </g>
    <line id="선_49" data-name="선 49" x2="3.29" y2="4.868" transform="translate(18.687 4.346)" fill="none" stroke="#4971cf" stroke-linecap="round" stroke-linejoin="round" stroke-width="3"/>
    <line id="선_50" data-name="선 50" y1="4.868" x2="3.288" transform="translate(43.259 4.346)" fill="none" stroke="#4971cf" stroke-linecap="round" stroke-linejoin="round" stroke-width="3"/>
    <g id="그룹_1024" data-name="그룹 1024" transform="translate(0 0)">
      <g id="그룹_1023" data-name="그룹 1023" clip-path="url(#clip-path)">
        <path id="패스_8819" data-name="패스 8819" d="M46.228,33.855l-.759-4.428s2.981-2.953,3.116-3.085c1.55-1.509,1.255-3-.57-3.526L43.089,22.1l-2.143-4.339c-.991-1.623-2.427-1.623-3.419,0L35.386,22.1l-4.927.716c-1.824.525-2.12,2.016-.569,3.526.134.132,3.115,3.085,3.115,3.085l-.76,4.428c-.3,2.223,1.079,3.163,3.141,2.079.186-.1,3.852-1.98,3.852-1.98l3.851,1.98C45.149,37.019,46.528,36.078,46.228,33.855Z" transform="translate(-6.621 -3.792)" fill="none" stroke="#4971cf" stroke-linecap="round" stroke-linejoin="round" stroke-width="3"/>
        <path id="패스_8820" data-name="패스 8820" d="M1.5,60.388l8.672-8.672a8.774,8.774,0,0,1,6.2-2.57h6.6a7.074,7.074,0,0,1,5,2.072,6.033,6.033,0,0,0,4.265,1.767h7.1a3.564,3.564,0,0,1,0,7.129H24.258" transform="translate(-0.344 -11.263)" fill="none" stroke="#fff" stroke-linecap="round" stroke-linejoin="round" stroke-width="3"/>
        <path id="패스_8821" data-name="패스 8821" d="M46.544,53.61l12.52-10.477a3.645,3.645,0,0,1,4.916,5.372l-18.3,18.3A5.483,5.483,0,0,1,41.8,68.412H22.953a3.287,3.287,0,0,0-2.326.964l-2.053,2.053" transform="translate(-4.257 -9.69)" fill="none" stroke="#fff" stroke-linecap="round" stroke-linejoin="round" stroke-width="3"/>
      </g>
    </g>
  </g>
</svg>
