<svg id="그룹_134" data-name="그룹 134" xmlns="http://www.w3.org/2000/svg" xmlns:xlink="http://www.w3.org/1999/xlink" width="45.145" height="56" viewBox="0 0 45.145 56">
  <defs>
    <clipPath id="clip-path">
      <rect id="사각형_179" data-name="사각형 179" width="45.145" height="56" fill="none"/>
    </clipPath>
  </defs>
  <g id="그룹_133" data-name="그룹 133" transform="translate(0 0)" clip-path="url(#clip-path)">
    <path id="패스_774" data-name="패스 774" d="M36.324,16.559v-8A7.059,7.059,0,0,0,29.265,1.5H8.559A7.058,7.058,0,0,0,1.5,8.559V46.206a7.059,7.059,0,0,0,7.059,7.059H29.265a7.06,7.06,0,0,0,7.059-7.059V35.148" transform="translate(0.618 0.618)" fill="none" stroke="#fff" stroke-linecap="round" stroke-linejoin="round" stroke-width="3"/>
    <line id="선_28" data-name="선 28" x2="5.647" transform="translate(16.705 8.706)" fill="none" stroke="#fff" stroke-linecap="round" stroke-linejoin="round" stroke-width="3"/>
    <path id="패스_775" data-name="패스 775" d="M33.981,12.311H16.625a3.743,3.743,0,0,0-3.743,3.744v10.9A3.743,3.743,0,0,0,16.625,30.7h5.723L25.3,34.672,28.256,30.7h5.725a3.742,3.742,0,0,0,3.743-3.744v-10.9A3.742,3.742,0,0,0,33.981,12.311Z" transform="translate(5.304 5.069)" fill="none" stroke="#2a72d4" stroke-linecap="round" stroke-linejoin="round" stroke-width="3"/>
  </g>
</svg>
