<svg xmlns="http://www.w3.org/2000/svg" width="40" height="41" viewBox="0 0 40 41">
  <path id="룰렛_바로가기" d="M22,2A20.253,20.253,0,0,1,42,22.5,20.253,20.253,0,0,1,22,43,20.256,20.256,0,0,1,2,22.5,20.256,20.256,0,0,1,22,2Zm1.562,11.211-.168-.15a1.471,1.471,0,0,0-1.766-.014l-.188.164-.144.172a1.569,1.569,0,0,0-.014,1.81l.16.193,5.438,5.576H13.5l-.2.012a1.519,1.519,0,0,0-1.282,1.316L12,22.5l.014.209A1.519,1.519,0,0,0,13.3,24.022l.2.014H26.88l-5.44,5.576-.146.174a1.566,1.566,0,0,0,.139,2.01,1.473,1.473,0,0,0,1.961.143l.166-.15,8-8.2.144-.174a1.569,1.569,0,0,0,.016-1.808l-.16-.193-8-8.2-.17-.15.168.15Z" transform="translate(-2 -2.001)" fill="#ff8a14"/>
</svg>
