<svg width="25" height="25" viewBox="0 0 25 25" fill="none" xmlns="http://www.w3.org/2000/svg">
<path d="M20.084 18.9785C20.1566 19.0511 20.2141 19.1373 20.2534 19.2321C20.2927 19.327 20.3129 19.4286 20.3129 19.5313C20.3129 19.6339 20.2927 19.7356 20.2534 19.8304C20.2141 19.9252 20.1566 20.0114 20.084 20.084C20.0114 20.1566 19.9252 20.2142 19.8304 20.2534C19.7355 20.2927 19.6339 20.3129 19.5312 20.3129C19.4286 20.3129 19.327 20.2927 19.2321 20.2534C19.1373 20.2142 19.0511 20.1566 18.9785 20.084L12.5 13.6045L6.02148 20.084C5.87489 20.2306 5.67607 20.3129 5.46875 20.3129C5.26143 20.3129 5.06261 20.2306 4.91602 20.084C4.76942 19.9374 4.68707 19.7386 4.68707 19.5313C4.68707 19.3239 4.76942 19.1251 4.91602 18.9785L11.3955 12.5L4.91602 6.02149C4.76942 5.8749 4.68707 5.67607 4.68707 5.46876C4.68707 5.26144 4.76942 5.06262 4.91602 4.91602C5.06261 4.76943 5.26143 4.68707 5.46875 4.68707C5.67607 4.68707 5.87489 4.76943 6.02148 4.91602L12.5 11.3955L18.9785 4.91602C19.1251 4.76943 19.3239 4.68707 19.5312 4.68707C19.7386 4.68707 19.9374 4.76943 20.084 4.91602C20.2306 5.06262 20.3129 5.26144 20.3129 5.46876C20.3129 5.67607 20.2306 5.8749 20.084 6.02149L13.6045 12.5L20.084 18.9785Z" fill="black"/>
</svg>
